<?xml version="1.0" encoding="utf-8"?>
<svg preserveAspectRatio="xMidYMid" width="24" height="24" viewBox="0 0 24 24" xmlns="http://www.w3.org/2000/svg">
  <defs>
    <style>
      .cls-1 {
        fill: #ff7555;
        fill-rule: evenodd;
      }
    </style>
  </defs>
  <path d="M 10.949 19.296 C 10.949 20.565 9.921 21.594 8.652 21.594 C 7.79 21.594 7.04 21.111 6.647 20.405 C 6.461 20.07 6.402 19.293 7.178 19.293 C 7.599 19.293 7.726 19.296 7.726 19.296 C 8.288 19.296 8.744 18.841 8.744 18.28 L 8.744 18.28 C 8.744 17.718 8.288 17.262 7.726 17.262 L 5.285 17.262 C 4.723 17.262 4.268 16.806 4.268 16.245 L 4.268 16.245 C 4.268 15.682 4.723 15.227 5.285 15.227 L 7.726 15.227 C 8.29 15.227 8.745 14.77 8.745 14.209 L 8.745 14.209 C 8.745 13.647 8.29 13.192 7.726 13.192 L 3.962 13.192 C 3.401 13.192 2.944 12.737 2.944 12.174 L 2.944 12.174 C 2.944 11.612 3.401 11.158 3.962 11.158 L 7.726 11.158 C 8.29 11.158 8.745 10.702 8.745 10.139 L 8.745 10.139 C 8.745 9.578 8.29 9.122 7.726 9.122 L 5.285 9.122 C 4.723 9.122 4.268 8.667 4.268 8.104 L 4.268 8.104 C 4.268 7.543 4.723 7.087 5.285 7.087 L 7.726 7.087 C 8.29 7.087 8.745 6.632 8.745 6.068 L 8.745 6.068 C 8.745 5.507 8.29 5.052 7.726 5.052 L 6.488 5.052 C 6.488 5.052 6.86 4.494 7.312 4.133 C 7.765 3.772 8.674 3.212 8.674 3.212 C 9.157 2.925 9.317 2.302 9.029 1.818 L 9.029 1.818 C 8.743 1.335 8.116 1.125 7.633 1.413 L 6.648 1.985 C 3.605 4.056 1.565 7.877 1.565 12.248 C 1.565 18.824 6.182 23.951 11.876 23.951 L 12.106 23.951 C 17.8 23.951 22.417 18.824 22.417 12.248 C 22.417 7.877 20.375 4.056 17.334 1.985 L 16.349 1.413 C 15.866 1.125 15.239 1.334 14.953 1.818 L 14.953 1.818 C 14.666 2.301 14.824 2.925 15.308 3.212 C 15.308 3.212 16.217 3.772 16.67 4.133 C 17.121 4.494 17.493 5.052 17.493 5.052 L 16.255 5.052 C 15.693 5.052 15.238 5.507 15.238 6.068 L 15.238 6.068 C 15.238 6.632 15.693 7.087 16.255 7.087 L 18.698 7.087 C 19.259 7.087 19.714 7.542 19.714 8.104 L 19.714 8.104 C 19.714 8.666 19.259 9.121 18.698 9.121 L 16.255 9.121 C 15.693 9.121 15.238 9.577 15.238 10.139 L 15.238 10.139 C 15.238 10.701 15.693 11.156 16.255 11.156 L 20.02 11.156 C 20.582 11.156 21.039 11.612 21.039 12.174 L 21.039 12.174 C 21.039 12.736 20.582 13.192 20.02 13.192 L 16.255 13.192 C 15.693 13.192 15.238 13.647 15.238 14.209 L 15.238 14.209 C 15.238 14.77 15.693 15.227 16.255 15.227 L 18.698 15.227 C 19.259 15.227 19.714 15.682 19.714 16.245 L 19.714 16.245 C 19.714 16.806 19.259 17.262 18.698 17.262 L 16.255 17.262 C 15.693 17.262 15.238 17.718 15.238 18.279 L 15.238 18.279 C 15.238 18.841 15.693 19.296 16.255 19.296 C 16.255 19.296 16.384 19.292 16.804 19.292 C 17.58 19.292 17.521 20.069 17.335 20.405 C 16.942 21.111 16.191 21.593 15.33 21.593 C 14.061 21.593 13.033 20.565 13.033 19.296 L 13.034 1.59 C 13.034 1.014 12.568 0.547 11.991 0.547 C 11.415 0.547 10.948 1.014 10.948 1.59 L 10.949 19.296 Z" style="fill: rgb(255, 117, 85);"/>
</svg>