<?xml version="1.0" encoding="utf-8"?>
<svg preserveAspectRatio="xMidYMid" width="125" height="24" viewBox="0 0 125 24" xmlns="http://www.w3.org/2000/svg">
  <defs>
    <style>
      .cls-1 {
        fill: #fff;
      }

      .cls-1, .cls-2 {
        fill-rule: evenodd;
      }

      .cls-2 {
        fill: #ff7555;
      }
    </style>
  </defs>
  <path d="M 10.826 18.934 C 10.826 20.203 9.798 21.232 8.529 21.232 C 7.667 21.232 6.917 20.749 6.524 20.043 C 6.338 19.708 6.279 18.931 7.055 18.931 C 7.476 18.931 7.603 18.934 7.603 18.934 C 8.165 18.934 8.621 18.479 8.621 17.918 L 8.621 17.918 C 8.621 17.356 8.165 16.9 7.603 16.9 L 5.162 16.9 C 4.6 16.9 4.145 16.444 4.145 15.883 L 4.145 15.883 C 4.145 15.32 4.6 14.865 5.162 14.865 L 7.603 14.865 C 8.167 14.865 8.622 14.408 8.622 13.847 L 8.622 13.847 C 8.622 13.285 8.167 12.83 7.603 12.83 L 3.839 12.83 C 3.278 12.83 2.821 12.375 2.821 11.812 L 2.821 11.812 C 2.821 11.25 3.278 10.796 3.839 10.796 L 7.603 10.796 C 8.167 10.796 8.622 10.34 8.622 9.777 L 8.622 9.777 C 8.622 9.216 8.167 8.76 7.603 8.76 L 5.162 8.76 C 4.6 8.76 4.145 8.305 4.145 7.742 L 4.145 7.742 C 4.145 7.181 4.6 6.725 5.162 6.725 L 7.603 6.725 C 8.167 6.725 8.622 6.27 8.622 5.706 L 8.622 5.706 C 8.622 5.145 8.167 4.69 7.603 4.69 L 6.365 4.69 C 6.365 4.69 6.737 4.132 7.189 3.771 C 7.642 3.41 8.551 2.85 8.551 2.85 C 9.034 2.563 9.194 1.94 8.906 1.456 L 8.906 1.456 C 8.62 0.973 7.993 0.763 7.51 1.051 L 6.525 1.623 C 3.482 3.694 1.442 7.515 1.442 11.886 C 1.442 18.462 6.059 23.589 11.753 23.589 L 11.983 23.589 C 17.677 23.589 22.294 18.462 22.294 11.886 C 22.294 7.515 20.252 3.694 17.211 1.623 L 16.226 1.051 C 15.743 0.763 15.116 0.972 14.83 1.456 L 14.83 1.456 C 14.543 1.939 14.701 2.563 15.185 2.85 C 15.185 2.85 16.094 3.41 16.547 3.771 C 16.998 4.132 17.37 4.69 17.37 4.69 L 16.132 4.69 C 15.57 4.69 15.115 5.145 15.115 5.706 L 15.115 5.706 C 15.115 6.27 15.57 6.725 16.132 6.725 L 18.575 6.725 C 19.136 6.725 19.591 7.18 19.591 7.742 L 19.591 7.742 C 19.591 8.304 19.136 8.759 18.575 8.759 L 16.132 8.759 C 15.57 8.759 15.115 9.215 15.115 9.777 L 15.115 9.777 C 15.115 10.339 15.57 10.794 16.132 10.794 L 19.897 10.794 C 20.459 10.794 20.916 11.25 20.916 11.812 L 20.916 11.812 C 20.916 12.374 20.459 12.83 19.897 12.83 L 16.132 12.83 C 15.57 12.83 15.115 13.285 15.115 13.847 L 15.115 13.847 C 15.115 14.408 15.57 14.865 16.132 14.865 L 18.575 14.865 C 19.136 14.865 19.591 15.32 19.591 15.883 L 19.591 15.883 C 19.591 16.444 19.136 16.9 18.575 16.9 L 16.132 16.9 C 15.57 16.9 15.115 17.356 15.115 17.917 L 15.115 17.917 C 15.115 18.479 15.57 18.934 16.132 18.934 C 16.132 18.934 16.261 18.93 16.681 18.93 C 17.457 18.93 17.398 19.707 17.212 20.043 C 16.819 20.749 16.068 21.231 15.207 21.231 C 13.938 21.231 12.91 20.203 12.91 18.934 L 12.911 1.228 C 12.911 0.652 12.445 0.185 11.868 0.185 C 11.292 0.185 10.825 0.652 10.825 1.228 L 10.826 18.934 Z" style="fill: rgb(255, 117, 85);"/>
  <path d="M 43.386 6.381 L 43.386 8.531 L 38.626 8.531 L 38.626 18.281 L 36.476 18.281 L 36.476 8.531 L 31.706 8.531 L 31.706 6.381 L 43.386 6.381 ZM 53.909 12.331 L 53.909 18.281 L 51.749 18.281 L 51.749 12.331 C 51.749 12.044 51.679 11.831 51.539 11.691 C 51.392 11.544 51.176 11.471 50.889 11.471 L 46.999 11.471 L 46.999 9.311 L 50.889 9.311 C 51.096 9.311 51.312 9.334 51.539 9.381 C 51.766 9.428 51.989 9.501 52.209 9.601 C 52.436 9.701 52.652 9.828 52.859 9.981 C 53.059 10.141 53.239 10.334 53.399 10.561 C 53.552 10.781 53.676 11.038 53.769 11.331 C 53.862 11.624 53.909 11.958 53.909 12.331 Z M 46.119 5.511 L 46.119 18.281 L 43.969 18.281 L 43.969 5.511 L 46.119 5.511 ZM 57.272 5.511 L 57.272 7.461 L 55.122 7.461 L 55.122 5.511 L 57.272 5.511 Z M 57.272 9.311 L 57.272 18.281 L 55.122 18.281 L 55.122 9.311 L 57.272 9.311 ZM 68.49 13.301 L 68.49 18.281 L 66.33 18.281 L 66.33 13.301 C 66.33 13.021 66.28 12.768 66.18 12.541 C 66.087 12.314 65.957 12.121 65.79 11.961 C 65.624 11.801 65.427 11.678 65.2 11.591 C 64.98 11.511 64.74 11.471 64.48 11.471 L 60.7 11.471 L 60.7 18.281 L 58.54 18.281 L 58.54 10.381 C 58.54 10.228 58.57 10.088 58.63 9.961 C 58.684 9.828 58.76 9.714 58.86 9.621 C 58.96 9.521 59.077 9.444 59.21 9.391 C 59.344 9.338 59.484 9.311 59.63 9.311 L 64.49 9.311 C 64.764 9.311 65.05 9.341 65.35 9.401 C 65.657 9.461 65.957 9.558 66.25 9.691 C 66.544 9.831 66.827 10.004 67.1 10.211 C 67.367 10.418 67.604 10.668 67.81 10.961 C 68.017 11.261 68.18 11.604 68.3 11.991 C 68.427 12.378 68.49 12.814 68.49 13.301 ZM 75.037 13.381 L 80.117 18.281 L 77.007 18.281 L 72.657 14.081 C 72.417 13.861 72.304 13.584 72.317 13.251 C 72.33 13.098 72.37 12.951 72.437 12.811 C 72.51 12.678 72.607 12.564 72.727 12.471 L 76.667 9.291 L 80.117 9.291 L 75.037 13.381 Z M 71.767 5.511 L 71.767 18.281 L 69.617 18.281 L 69.617 5.511 L 71.767 5.511 ZM 91.531 6.381 L 91.531 8.531 L 86.771 8.531 L 86.771 18.281 L 84.621 18.281 L 84.621 8.531 L 79.851 8.531 L 79.851 6.381 L 91.531 6.381 ZM 99.95 12.281 L 99.95 15.311 C 99.95 15.611 99.896 15.934 99.79 16.281 C 99.683 16.621 99.513 16.941 99.28 17.241 C 99.046 17.534 98.74 17.781 98.36 17.981 C 97.98 18.181 97.516 18.281 96.97 18.281 L 93.08 18.281 C 92.78 18.281 92.456 18.228 92.11 18.121 C 91.77 18.014 91.45 17.844 91.15 17.611 C 90.856 17.378 90.61 17.071 90.41 16.691 C 90.21 16.311 90.11 15.851 90.11 15.311 C 90.11 15.011 90.163 14.688 90.27 14.341 C 90.376 13.988 90.546 13.664 90.78 13.371 C 91.013 13.078 91.32 12.831 91.7 12.631 C 92.08 12.431 92.54 12.331 93.08 12.331 L 96.97 12.331 L 96.97 14.391 L 93.08 14.391 C 92.786 14.391 92.56 14.481 92.4 14.661 C 92.24 14.841 92.16 15.061 92.16 15.321 C 92.16 15.608 92.253 15.828 92.44 15.981 C 92.626 16.141 92.846 16.221 93.1 16.221 L 96.97 16.221 C 97.263 16.221 97.493 16.134 97.66 15.961 C 97.82 15.781 97.9 15.558 97.9 15.291 L 97.9 12.281 C 97.9 12.001 97.81 11.778 97.63 11.611 C 97.456 11.444 97.236 11.361 96.97 11.361 L 92.23 11.361 L 92.23 9.311 L 96.97 9.311 C 97.27 9.311 97.593 9.361 97.94 9.461 C 98.286 9.568 98.606 9.741 98.9 9.981 C 99.2 10.214 99.45 10.521 99.65 10.901 C 99.85 11.281 99.95 11.741 99.95 12.281 ZM 110.936 13.301 L 110.936 18.281 L 108.776 18.281 L 108.776 13.301 C 108.776 13.021 108.726 12.768 108.626 12.541 C 108.532 12.314 108.402 12.121 108.236 11.961 C 108.069 11.801 107.872 11.678 107.646 11.591 C 107.426 11.511 107.186 11.471 106.926 11.471 L 103.146 11.471 L 103.146 18.281 L 100.986 18.281 L 100.986 10.381 C 100.986 10.228 101.016 10.088 101.076 9.961 C 101.129 9.828 101.206 9.714 101.306 9.621 C 101.406 9.521 101.522 9.444 101.656 9.391 C 101.789 9.338 101.929 9.311 102.076 9.311 L 106.936 9.311 C 107.209 9.311 107.496 9.341 107.796 9.401 C 108.102 9.461 108.402 9.558 108.696 9.691 C 108.989 9.831 109.272 10.004 109.546 10.211 C 109.812 10.418 110.049 10.668 110.256 10.961 C 110.462 11.261 110.626 11.604 110.746 11.991 C 110.872 12.378 110.936 12.814 110.936 13.301 ZM 117.483 13.381 L 122.563 18.281 L 119.453 18.281 L 115.103 14.081 C 114.863 13.861 114.749 13.584 114.763 13.251 C 114.776 13.098 114.816 12.951 114.883 12.811 C 114.956 12.678 115.053 12.564 115.173 12.471 L 119.113 9.291 L 122.563 9.291 L 117.483 13.381 Z M 114.213 5.511 L 114.213 18.281 L 112.063 18.281 L 112.063 5.511 L 114.213 5.511 Z" transform="matrix(1, 0, 0, 1, 0, 0)" style="white-space: pre; fill: rgb(255, 255, 255);"/>
</svg>