<?xml version="1.0" encoding="utf-8"?>
<svg preserveAspectRatio="xMidYMid" width="130" height="24" viewBox="0 0 130 24" xmlns="http://www.w3.org/2000/svg">
  <defs>
    <style>
      .cls-1 {
        fill: #fff;
      }

      .cls-1, .cls-2 {
        fill-rule: evenodd;
      }

      .cls-2 {
        fill: #ff7555;
      }
    </style>
  </defs>
  <g>
    <path d="M 46.686 5.441 L 46.686 7.591 L 41.926 7.591 L 41.926 17.341 L 39.776 17.341 L 39.776 7.591 L 35.006 7.591 L 35.006 5.441 L 46.686 5.441 Z M 57.209 11.391 L 57.209 17.341 L 55.049 17.341 L 55.049 11.391 C 55.049 11.104 54.979 10.891 54.839 10.751 C 54.692 10.604 54.476 10.531 54.189 10.531 L 50.299 10.531 L 50.299 8.371 L 54.189 8.371 C 54.396 8.371 54.612 8.394 54.839 8.441 C 55.066 8.488 55.289 8.561 55.509 8.661 C 55.736 8.761 55.952 8.888 56.159 9.041 C 56.359 9.201 56.539 9.394 56.699 9.621 C 56.852 9.841 56.976 10.098 57.069 10.391 C 57.162 10.684 57.209 11.018 57.209 11.391 Z M 49.419 4.571 L 49.419 17.341 L 47.269 17.341 L 47.269 4.571 L 49.419 4.571 Z M 60.572 4.571 L 60.572 6.521 L 58.422 6.521 L 58.422 4.571 L 60.572 4.571 Z M 60.572 8.371 L 60.572 17.341 L 58.422 17.341 L 58.422 8.371 L 60.572 8.371 Z M 71.79 12.361 L 71.79 17.341 L 69.63 17.341 L 69.63 12.361 C 69.63 12.081 69.58 11.828 69.48 11.601 C 69.387 11.374 69.257 11.181 69.09 11.021 C 68.924 10.861 68.727 10.738 68.5 10.651 C 68.28 10.571 68.04 10.531 67.78 10.531 L 64 10.531 L 64 17.341 L 61.84 17.341 L 61.84 9.441 C 61.84 9.288 61.87 9.148 61.93 9.021 C 61.984 8.888 62.06 8.774 62.16 8.681 C 62.26 8.581 62.377 8.504 62.51 8.451 C 62.644 8.398 62.784 8.371 62.93 8.371 L 67.79 8.371 C 68.064 8.371 68.35 8.401 68.65 8.461 C 68.957 8.521 69.257 8.618 69.55 8.751 C 69.844 8.891 70.127 9.064 70.4 9.271 C 70.667 9.478 70.904 9.728 71.11 10.021 C 71.317 10.321 71.48 10.664 71.6 11.051 C 71.727 11.438 71.79 11.874 71.79 12.361 Z M 78.337 12.441 L 83.417 17.341 L 80.307 17.341 L 75.957 13.141 C 75.717 12.921 75.604 12.644 75.617 12.311 C 75.63 12.158 75.67 12.011 75.737 11.871 C 75.81 11.738 75.907 11.624 76.027 11.531 L 79.967 8.351 L 83.417 8.351 L 78.337 12.441 Z M 75.067 4.571 L 75.067 17.341 L 72.917 17.341 L 72.917 4.571 L 75.067 4.571 Z M 94.831 5.441 L 94.831 7.591 L 90.071 7.591 L 90.071 17.341 L 87.921 17.341 L 87.921 7.591 L 83.151 7.591 L 83.151 5.441 L 94.831 5.441 Z M 103.25 11.341 L 103.25 14.371 C 103.25 14.671 103.196 14.994 103.09 15.341 C 102.983 15.681 102.813 16.001 102.58 16.301 C 102.346 16.594 102.04 16.841 101.66 17.041 C 101.28 17.241 100.816 17.341 100.27 17.341 L 96.38 17.341 C 96.08 17.341 95.756 17.288 95.41 17.181 C 95.07 17.074 94.75 16.904 94.45 16.671 C 94.156 16.438 93.91 16.131 93.71 15.751 C 93.51 15.371 93.41 14.911 93.41 14.371 C 93.41 14.071 93.463 13.748 93.57 13.401 C 93.676 13.048 93.846 12.724 94.08 12.431 C 94.313 12.138 94.62 11.891 95 11.691 C 95.38 11.491 95.84 11.391 96.38 11.391 L 100.27 11.391 L 100.27 13.451 L 96.38 13.451 C 96.086 13.451 95.86 13.541 95.7 13.721 C 95.54 13.901 95.46 14.121 95.46 14.381 C 95.46 14.668 95.553 14.888 95.74 15.041 C 95.926 15.201 96.146 15.281 96.4 15.281 L 100.27 15.281 C 100.563 15.281 100.793 15.194 100.96 15.021 C 101.12 14.841 101.2 14.618 101.2 14.351 L 101.2 11.341 C 101.2 11.061 101.11 10.838 100.93 10.671 C 100.756 10.504 100.536 10.421 100.27 10.421 L 95.53 10.421 L 95.53 8.371 L 100.27 8.371 C 100.57 8.371 100.893 8.421 101.24 8.521 C 101.586 8.628 101.906 8.801 102.2 9.041 C 102.5 9.274 102.75 9.581 102.95 9.961 C 103.15 10.341 103.25 10.801 103.25 11.341 Z M 114.236 12.361 L 114.236 17.341 L 112.076 17.341 L 112.076 12.361 C 112.076 12.081 112.026 11.828 111.926 11.601 C 111.832 11.374 111.702 11.181 111.536 11.021 C 111.369 10.861 111.172 10.738 110.946 10.651 C 110.726 10.571 110.486 10.531 110.226 10.531 L 106.446 10.531 L 106.446 17.341 L 104.286 17.341 L 104.286 9.441 C 104.286 9.288 104.316 9.148 104.376 9.021 C 104.429 8.888 104.506 8.774 104.606 8.681 C 104.706 8.581 104.822 8.504 104.956 8.451 C 105.089 8.398 105.229 8.371 105.376 8.371 L 110.236 8.371 C 110.509 8.371 110.796 8.401 111.096 8.461 C 111.402 8.521 111.702 8.618 111.996 8.751 C 112.289 8.891 112.572 9.064 112.846 9.271 C 113.112 9.478 113.349 9.728 113.556 10.021 C 113.762 10.321 113.926 10.664 114.046 11.051 C 114.172 11.438 114.236 11.874 114.236 12.361 Z M 120.783 12.441 L 125.863 17.341 L 122.753 17.341 L 118.403 13.141 C 118.163 12.921 118.049 12.644 118.063 12.311 C 118.076 12.158 118.116 12.011 118.183 11.871 C 118.256 11.738 118.353 11.624 118.473 11.531 L 122.413 8.351 L 125.863 8.351 L 120.783 12.441 Z M 117.513 4.571 L 117.513 17.341 L 115.363 17.341 L 115.363 4.571 L 117.513 4.571 Z" style="white-space: pre; fill: rgb(255, 255, 255);"/>
    <path d="M 11.396 18.817 C 11.396 20.086 10.368 21.115 9.099 21.115 C 8.237 21.115 7.487 20.632 7.094 19.926 C 6.908 19.591 6.849 18.814 7.625 18.814 C 8.046 18.814 8.173 18.817 8.173 18.817 C 8.735 18.817 9.191 18.362 9.191 17.801 L 9.191 17.801 C 9.191 17.239 8.735 16.783 8.173 16.783 L 5.732 16.783 C 5.17 16.783 4.715 16.327 4.715 15.766 L 4.715 15.766 C 4.715 15.203 5.17 14.748 5.732 14.748 L 8.173 14.748 C 8.737 14.748 9.192 14.291 9.192 13.73 L 9.192 13.73 C 9.192 13.168 8.737 12.713 8.173 12.713 L 4.409 12.713 C 3.848 12.713 3.391 12.258 3.391 11.695 L 3.391 11.695 C 3.391 11.133 3.848 10.679 4.409 10.679 L 8.173 10.679 C 8.737 10.679 9.192 10.223 9.192 9.66 L 9.192 9.66 C 9.192 9.099 8.737 8.643 8.173 8.643 L 5.732 8.643 C 5.17 8.643 4.715 8.188 4.715 7.625 L 4.715 7.625 C 4.715 7.064 5.17 6.608 5.732 6.608 L 8.173 6.608 C 8.737 6.608 9.192 6.153 9.192 5.589 L 9.192 5.589 C 9.192 5.028 8.737 4.573 8.173 4.573 L 6.935 4.573 C 6.935 4.573 7.307 4.015 7.759 3.654 C 8.212 3.293 9.121 2.733 9.121 2.733 C 9.604 2.446 9.764 1.823 9.476 1.339 L 9.476 1.339 C 9.19 0.856 8.563 0.646 8.08 0.934 L 7.095 1.506 C 4.052 3.577 2.012 7.398 2.012 11.769 C 2.012 18.345 6.629 23.472 12.323 23.472 L 12.553 23.472 C 18.247 23.472 22.864 18.345 22.864 11.769 C 22.864 7.398 20.822 3.577 17.781 1.506 L 16.796 0.934 C 16.313 0.646 15.686 0.855 15.4 1.339 L 15.4 1.339 C 15.113 1.822 15.271 2.446 15.755 2.733 C 15.755 2.733 16.664 3.293 17.117 3.654 C 17.568 4.015 17.94 4.573 17.94 4.573 L 16.702 4.573 C 16.14 4.573 15.685 5.028 15.685 5.589 L 15.685 5.589 C 15.685 6.153 16.14 6.608 16.702 6.608 L 19.145 6.608 C 19.706 6.608 20.161 7.063 20.161 7.625 L 20.161 7.625 C 20.161 8.187 19.706 8.642 19.145 8.642 L 16.702 8.642 C 16.14 8.642 15.685 9.098 15.685 9.66 L 15.685 9.66 C 15.685 10.222 16.14 10.677 16.702 10.677 L 20.467 10.677 C 21.029 10.677 21.486 11.133 21.486 11.695 L 21.486 11.695 C 21.486 12.257 21.029 12.713 20.467 12.713 L 16.702 12.713 C 16.14 12.713 15.685 13.168 15.685 13.73 L 15.685 13.73 C 15.685 14.291 16.14 14.748 16.702 14.748 L 19.145 14.748 C 19.706 14.748 20.161 15.203 20.161 15.766 L 20.161 15.766 C 20.161 16.327 19.706 16.783 19.145 16.783 L 16.702 16.783 C 16.14 16.783 15.685 17.239 15.685 17.8 L 15.685 17.8 C 15.685 18.362 16.14 18.817 16.702 18.817 C 16.702 18.817 16.831 18.813 17.251 18.813 C 18.027 18.813 17.968 19.59 17.782 19.926 C 17.389 20.632 16.638 21.114 15.777 21.114 C 14.508 21.114 13.48 20.086 13.48 18.817 L 13.481 1.111 C 13.481 0.535 13.015 0.068 12.438 0.068 C 11.862 0.068 11.395 0.535 11.395 1.111 L 11.396 18.817 Z" style="fill: rgb(255, 117, 85);"/>
  </g>
</svg>